<svg width="20" height="18" viewBox="0 0 20 18" fill="none" xmlns="http://www.w3.org/2000/svg">
<path d="M14.0235 6.34745H19.0155L15.8345 3.16445C14.8104 2.14032 13.5347 1.40385 12.1357 1.02906C10.7367 0.654269 9.26371 0.654379 7.86477 1.02937C6.46583 1.40437 5.19026 2.14104 4.1663 3.16532C3.14234 4.1896 2.40606 5.4654 2.0315 6.86445M0.985501 16.6435V11.6515M0.985501 11.6515H5.9775M0.985501 11.6515L4.1655 14.8345C5.18962 15.8586 6.46529 16.5951 7.86429 16.9698C9.26328 17.3446 10.7363 17.3445 12.1352 16.9695C13.5342 16.5945 14.8097 15.8579 15.8337 14.8336C16.8577 13.8093 17.5939 12.5335 17.9685 11.1345M19.0155 1.35545V6.34545" stroke="#494C51" stroke-width="1.5" stroke-linecap="round" stroke-linejoin="round"/>
</svg>
