<svg width="20" height="21" viewBox="0 0 20 21" fill="none" xmlns="http://www.w3.org/2000/svg">
<path d="M18.125 6.125V14.875C18.125 15.3723 17.9275 15.8492 17.5758 16.2008C17.2242 16.5525 16.7473 16.75 16.25 16.75H3.75C3.25272 16.75 2.77581 16.5525 2.42417 16.2008C2.07254 15.8492 1.875 15.3723 1.875 14.875V6.125M18.125 6.125C18.125 5.62772 17.9275 5.15081 17.5758 4.79917C17.2242 4.44754 16.7473 4.25 16.25 4.25H3.75C3.25272 4.25 2.77581 4.44754 2.42417 4.79917C2.07254 5.15081 1.875 5.62772 1.875 6.125M18.125 6.125V6.3275C18.125 6.64762 18.0431 6.96242 17.887 7.24191C17.7309 7.5214 17.5059 7.75628 17.2333 7.92417L10.9833 11.77C10.6877 11.9521 10.3472 12.0485 10 12.0485C9.65275 12.0485 9.31233 11.9521 9.01667 11.77L2.76667 7.925C2.4941 7.75711 2.26906 7.52224 2.11297 7.24275C1.95689 6.96325 1.87496 6.64845 1.875 6.32833V6.125" stroke="#494C51" stroke-width="1.5" stroke-linecap="round" stroke-linejoin="round"/>
</svg>
