<svg width="20" height="5" viewBox="0 0 20 5" fill="none" xmlns="http://www.w3.org/2000/svg">
<path d="M17.715 4.28073C18.8026 4.28073 19.688 3.32742 19.688 2.14495C19.688 0.953306 18.8026 0 17.715 0C16.6273 0 15.7419 0.953306 15.7419 2.14495C15.7419 3.32742 16.6273 4.28073 17.715 4.28073Z" fill="#494C51"/>
<path d="M9.83978 4.28073C10.9359 4.28073 11.8127 3.32742 11.8127 2.14495C11.8127 0.953306 10.9359 0 9.83978 0C8.75207 0 7.87518 0.953306 7.87518 2.14495C7.87518 3.32742 8.75207 4.28073 9.83978 4.28073Z" fill="#494C51"/>
<path d="M1.97302 4.28073C3.0607 4.28073 3.94603 3.32742 3.94603 2.14495C3.94603 0.953306 3.0607 0 1.97302 0C0.876891 0 0 0.953306 0 2.14495C0 3.32742 0.876891 4.28073 1.97302 4.28073Z" fill="#494C51"/>
</svg>
